<svg xmlns="http://www.w3.org/2000/svg" viewBox="0 0 600 400">
  <defs>
    <linearGradient id="hdr" x1="0" y1="0" x2="0" y2="1">
      <stop offset="0%" stop-color="#0f766e"/>
      <stop offset="100%" stop-color="#14b8a6"/>
    </linearGradient>
    <linearGradient id="navg" x1="0" y1="0" x2="1" y2="0">
      <stop offset="0%" stop-color="#0d3b3a"/>
      <stop offset="100%" stop-color="#0f766e"/>
    </linearGradient>
    <clipPath id="cp">
      <rect x="0" y="36" width="600" height="170"/>
    </clipPath>
  </defs>
  <!-- Browser chrome -->
  <rect x="0" y="0" width="600" height="36" rx="8" fill="#e9ecef"/>
  <rect x="0" y="30" width="600" height="6" fill="#e9ecef"/>
  <circle cx="18" cy="18" r="5" fill="#ff5f57"/>
  <circle cx="34" cy="18" r="5" fill="#ffbd2e"/>
  <circle cx="50" cy="18" r="5" fill="#28c840"/>
  <rect x="80" y="11" width="440" height="14" rx="7" fill="#d1d5db"/>
  <text x="300" y="21" font-family="sans-serif" font-size="8" fill="#6b7280" text-anchor="middle">smanurulhuda.sch.id</text>
  <!-- Hero with school building -->
  <rect x="0" y="36" width="600" height="170" fill="url(#hdr)"/>
  <g clip-path="url(#cp)">
    <rect x="0" y="36" width="600" height="170" fill="#0a5c4a" opacity="0.85"/>
    <rect x="150" y="100" width="300" height="100" fill="#e8dcc8"/>
    <rect x="150" y="100" width="300" height="10" fill="#c0392b"/>
    <polygon points="130,100 300,60 470,100" fill="#c0392b"/>
    <rect x="170" y="118" width="35" height="40" rx="2" fill="#87ceeb" opacity="0.7"/>
    <rect x="170" y="118" width="35" height="40" fill="none" stroke="#8b7355" stroke-width="1.5"/>
    <line x1="187.5" y1="118" x2="187.5" y2="158" stroke="#8b7355" stroke-width="1"/>
    <line x1="170" y1="138" x2="205" y2="138" stroke="#8b7355" stroke-width="1"/>
    <rect x="220" y="118" width="35" height="40" rx="2" fill="#87ceeb" opacity="0.7"/>
    <rect x="220" y="118" width="35" height="40" fill="none" stroke="#8b7355" stroke-width="1.5"/>
    <line x1="237.5" y1="118" x2="237.5" y2="158" stroke="#8b7355" stroke-width="1"/>
    <line x1="220" y1="138" x2="255" y2="138" stroke="#8b7355" stroke-width="1"/>
    <rect x="345" y="118" width="35" height="40" rx="2" fill="#87ceeb" opacity="0.7"/>
    <rect x="345" y="118" width="35" height="40" fill="none" stroke="#8b7355" stroke-width="1.5"/>
    <line x1="362.5" y1="118" x2="362.5" y2="158" stroke="#8b7355" stroke-width="1"/>
    <line x1="345" y1="138" x2="380" y2="138" stroke="#8b7355" stroke-width="1"/>
    <rect x="395" y="118" width="35" height="40" rx="2" fill="#87ceeb" opacity="0.7"/>
    <rect x="395" y="118" width="35" height="40" fill="none" stroke="#8b7355" stroke-width="1.5"/>
    <line x1="412.5" y1="118" x2="412.5" y2="158" stroke="#8b7355" stroke-width="1"/>
    <line x1="395" y1="138" x2="430" y2="138" stroke="#8b7355" stroke-width="1"/>
    <rect x="275" y="145" width="50" height="55" fill="#5d4037"/>
    <rect x="275" y="145" width="50" height="55" fill="none" stroke="#8b7355" stroke-width="1.5"/>
    <rect x="275" y="145" width="25" height="55" fill="#4e342e" opacity="0.5"/>
    <circle cx="318" cy="175" r="2" fill="#ffd700"/>
    <line x1="300" y1="60" x2="300" y2="45" stroke="#8b7355" stroke-width="2"/>
    <rect x="300" y="45" width="25" height="15" fill="#fff"/>
    <text x="312" y="56" font-family="sans-serif" font-size="6" fill="#c0392b" text-anchor="middle">NKRI</text>
    <rect x="0" y="195" width="600" height="15" fill="#4a7c3f"/>
  </g>
  <!-- Overlay and text -->
  <rect x="0" y="36" width="600" height="170" fill="#000" opacity="0.15"/>
  <text x="300" y="130" font-family="sans-serif" font-size="20" font-weight="bold" fill="#fff" text-anchor="middle">SMA NURUL HUDA</text>
  <text x="300" y="150" font-family="sans-serif" font-size="9" fill="#fff" opacity="0.9" text-anchor="middle">TERAKREDITASI A</text>
  <rect x="240" y="165" width="120" height="26" rx="13" fill="#fff"/>
  <text x="300" y="182" font-family="sans-serif" font-size="9" font-weight="bold" fill="#0f766e" text-anchor="middle">INFORMASI PPDB</text>
  <!-- Nav -->
  <rect x="0" y="206" width="600" height="28" fill="url(#navg)"/>
  <text x="30" y="224" font-family="sans-serif" font-size="8" font-weight="bold" fill="#fff">Beranda</text>
  <text x="100" y="224" font-family="sans-serif" font-size="8" fill="#fff" opacity="0.7">Profil</text>
  <text x="160" y="224" font-family="sans-serif" font-size="8" fill="#fff" opacity="0.7">Akademik</text>
  <text x="230" y="224" font-family="sans-serif" font-size="8" fill="#fff" opacity="0.7">Galeri</text>
  <text x="290" y="224" font-family="sans-serif" font-size="8" fill="#fff" opacity="0.7">Berita</text>
  <text x="350" y="224" font-family="sans-serif" font-size="8" fill="#fff" opacity="0.7">PPDB</text>
  <text x="410" y="224" font-family="sans-serif" font-size="8" fill="#fff" opacity="0.7">Kontak</text>
  <!-- Info cards -->
  <rect x="10" y="246" width="140" height="62" rx="6" fill="#fff"/>
  <rect x="10" y="246" width="140" height="4" rx="2" fill="#14b8a6"/>
  <text x="20" y="264" font-family="sans-serif" font-size="9" font-weight="bold" fill="#1f2937">Pengumuman</text>
  <text x="20" y="280" font-family="sans-serif" font-size="6.5" fill="#6b7280">- PPDB 2025 Gel 2 dibuka</text>
  <text x="20" y="294" font-family="sans-serif" font-size="6.5" fill="#6b7280">- Ujian semester ganjil</text>
  <rect x="160" y="246" width="140" height="62" rx="6" fill="#fff"/>
  <rect x="160" y="246" width="140" height="4" rx="2" fill="#f59e0b"/>
  <text x="170" y="264" font-family="sans-serif" font-size="9" font-weight="bold" fill="#1f2937">Prestasi</text>
  <text x="170" y="280" font-family="sans-serif" font-size="6.5" fill="#6b7280">- Juara 1 OSN Biologi</text>
  <text x="170" y="294" font-family="sans-serif" font-size="6.5" fill="#6b7280">- Juara 2 Futsal Cup</text>
  <rect x="310" y="246" width="140" height="62" rx="6" fill="#fff"/>
  <rect x="310" y="246" width="140" height="4" rx="2" fill="#3b82f6"/>
  <text x="320" y="264" font-family="sans-serif" font-size="9" font-weight="bold" fill="#1f2937">Agenda</text>
  <text x="320" y="280" font-family="sans-serif" font-size="6.5" fill="#6b7280">- 20 Jan: Class Meeting</text>
  <text x="320" y="294" font-family="sans-serif" font-size="6.5" fill="#6b7280">- 25 Jan: Raport</text>
  <rect x="460" y="246" width="130" height="62" rx="6" fill="#fff"/>
  <rect x="460" y="246" width="130" height="4" rx="2" fill="#ef4444"/>
  <text x="470" y="264" font-family="sans-serif" font-size="9" font-weight="bold" fill="#1f2937">Siswa</text>
  <text x="470" y="282" font-family="sans-serif" font-size="14" font-weight="bold" fill="#0f766e">1,247</text>
  <text x="470" y="296" font-family="sans-serif" font-size="6.5" fill="#6b7280">34 Guru &amp; Staff</text>
  <!-- Berita -->
  <text x="15" y="328" font-family="sans-serif" font-size="11" font-weight="bold" fill="#1f2937">Berita Terbaru</text>
  <rect x="15" y="333" width="135" height="3" rx="1.5" fill="#14b8a6"/>
  <rect x="10" y="342" width="140" height="48" rx="6" fill="#fff"/>
  <rect x="15" y="347" width="45" height="38" rx="4" fill="#0f766e"/>
  <text x="37" y="371" font-family="sans-serif" font-size="18" fill="#fff" text-anchor="middle">N</text>
  <text x="70" y="358" font-family="sans-serif" font-size="6.5" font-weight="bold" fill="#1f2937">Kegiatan MPLS</text>
  <text x="70" y="374" font-family="sans-serif" font-size="6" fill="#6b7280">12 Jan 2025</text>
  <rect x="160" y="342" width="140" height="48" rx="6" fill="#fff"/>
  <rect x="165" y="347" width="45" height="38" rx="4" fill="#f59e0b"/>
  <text x="187" y="371" font-family="sans-serif" font-size="18" fill="#fff" text-anchor="middle">P</text>
  <text x="220" y="358" font-family="sans-serif" font-size="6.5" font-weight="bold" fill="#1f2937">Lomba Pramuka</text>
  <text x="220" y="374" font-family="sans-serif" font-size="6" fill="#6b7280">8 Jan 2025</text>
  <rect x="310" y="342" width="140" height="48" rx="6" fill="#fff"/>
  <rect x="315" y="347" width="45" height="38" rx="4" fill="#3b82f6"/>
  <text x="337" y="371" font-family="sans-serif" font-size="18" fill="#fff" text-anchor="middle">W</text>
  <text x="370" y="358" font-family="sans-serif" font-size="6.5" font-weight="bold" fill="#1f2937">Wisuda Kelas XII</text>
  <text x="370" y="374" font-family="sans-serif" font-size="6" fill="#6b7280">5 Jan 2025</text>
  <rect x="460" y="342" width="130" height="48" rx="6" fill="#fff"/>
  <rect x="465" y="347" width="45" height="38" rx="4" fill="#ef4444"/>
  <text x="487" y="371" font-family="sans-serif" font-size="18" fill="#fff" text-anchor="middle">R</text>
  <text x="520" y="358" font-family="sans-serif" font-size="6.5" font-weight="bold" fill="#1f2937">Renovasi Kelas</text>
  <text x="520" y="374" font-family="sans-serif" font-size="6" fill="#6b7280">3 Jan 2025</text>
</svg>
